ffmpeg version 4.2.4-1ubuntu0.1 Copyright (c) 2000-2020 the FFmpeg developers
  built with gcc 9 (Ubuntu 9.3.0-10ubuntu2)
  configuration: --prefix=/usr --extra-version=1ubuntu0.1 --toolchain=hardened --libdir=/usr/lib/x86_64-linux-gnu --incdir=/usr/include/x86_64-linux-gnu --arch=amd64 --enable-gpl --disable-stripping --enable-avresample --disable-filter=resample --enable-avisynth --enable-gnutls --enable-ladspa --enable-libaom --enable-libass --enable-libbluray --enable-libbs2b --enable-libcaca --enable-libcdio --enable-libcodec2 --enable-libflite --enable-libfontconfig --enable-libfreetype --enable-libfribidi --enable-libgme --enable-libgsm --enable-libjack --enable-libmp3lame --enable-libmysofa --enable-libopenjpeg --enable-libopenmpt --enable-libopus --enable-libpulse --enable-librsvg --enable-librubberband --enable-libshine --enable-libsnappy --enable-libsoxr --enable-libspeex --enable-libssh --enable-libtheora --enable-libtwolame --enable-libvidstab --enable-libvorbis --enable-libvpx --enable-libwavpack --enable-libwebp --enable-libx265 --enable-libxml2 --enable-libxvid --enable-libzmq --enable-libzvbi --enable-lv2 --enable-omx --enable-openal --enable-opencl --enable-opengl --enable-sdl2 --enable-libdc1394 --enable-libdrm --enable-libiec61883 --enable-nvenc --enable-chromaprint --enable-frei0r --enable-libx264 --enable-shared
  WARNING: library configuration mismatch
  avcodec     configuration: --prefix=/usr --extra-version=1ubuntu0.1 --toolchain=hardened --libdir=/usr/lib/x86_64-linux-gnu --incdir=/usr/include/x86_64-linux-gnu --arch=amd64 --enable-gpl --disable-stripping --enable-avresample --disable-filter=resample --enable-avisynth --enable-gnutls --enable-ladspa --enable-libaom --enable-libass --enable-libbluray --enable-libbs2b --enable-libcaca --enable-libcdio --enable-libcodec2 --enable-libflite --enable-libfontconfig --enable-libfreetype --enable-libfribidi --enable-libgme --enable-libgsm --enable-libjack --enable-libmp3lame --enable-libmysofa --enable-libopenjpeg --enable-libopenmpt --enable-libopus --enable-libpulse --enable-librsvg --enable-librubberband --enable-libshine --enable-libsnappy --enable-libsoxr --enable-libspeex --enable-libssh --enable-libtheora --enable-libtwolame --enable-libvidstab --enable-libvorbis --enable-libvpx --enable-libwavpack --enable-libwebp --enable-libx265 --enable-libxml2 --enable-libxvid --enable-libzmq --enable-libzvbi --enable-lv2 --enable-omx --enable-openal --enable-opencl --enable-opengl --enable-sdl2 --enable-libdc1394 --enable-libdrm --enable-libiec61883 --enable-nvenc --enable-chromaprint --enable-frei0r --enable-libx264 --enable-shared --enable-version3 --disable-doc --disable-programs --enable-libaribb24 --enable-liblensfun --enable-libopencore_amrnb --enable-libopencore_amrwb --enable-libtesseract --enable-libvo_amrwbenc
  libavutil      56. 31.100 / 56. 31.100
  libavcodec     58. 54.100 / 58. 54.100
  libavformat    58. 29.100 / 58. 29.100
  libavdevice    58.  8.100 / 58.  8.100
  libavfilter     7. 57.100 /  7. 57.100
  libavresample   4.  0.  0 /  4.  0.  0
  libswscale      5.  5.100 /  5.  5.100
  libswresample   3.  5.100 /  3.  5.100
  libpostproc    55.  5.100 / 55.  5.100
Input #0, mov,mp4,m4a,3gp,3g2,mj2, from '/home/lucien/Documents/test/test1.mp4':
  Metadata:
    major_brand     : isom
    minor_version   : 512
    compatible_brands: isomiso2avc1mp41
    encoder         : Lavf59.5.100
  Duration: 00:04:40.22, start: 0.000000, bitrate: 173 kb/s
    Stream #0:0(und): Video: h264 (Main) (avc1 / 0x31637661), yuv420p(tv, bt709), 640x360 [SAR 1:1 DAR 16:9], 120 kb/s, 23.98 fps, 23.98 tbr, 24k tbn, 47.95 tbc (default)
    Metadata:
      handler_name    : ISO Media file produced by Google Inc.
    Stream #0:1(eng): Audio: aac (HE-AAC) (mp4a / 0x6134706D), 44100 Hz, stereo, fltp, 48 kb/s (default)
    Metadata:
      handler_name    : ISO Media file produced by Google Inc.
Stream mapping:
  Stream #0:0 -> #0:0 (h264 (native) -> h264 (libx264))
  Stream #0:1 -> #0:1 (aac (native) -> aac (native))
Press [q] to stop, [?] for help
[libx264 @ 0x55640c969440] using SAR=1/1
[libx264 @ 0x55640c969440] using cpu capabilities: MMX2 SSE2Fast SSSE3 SSE4.2 AVX FMA3 BMI2 AVX2
[libx264 @ 0x55640c969440] profile High, level 3.0
[libx264 @ 0x55640c969440] 264 - core 155 r2917 0a84d98 - H.264/MPEG-4 AVC codec - Copyleft 2003-2018 - http://www.videolan.org/x264.html - options: cabac=1 ref=3 deblock=1:0:0 analyse=0x3:0x113 me=hex subme=7 psy=1 psy_rd=1.00:0.00 mixed_ref=1 me_range=16 chroma_me=1 trellis=1 8x8dct=1 cqm=0 deadzone=21,11 fast_pskip=1 chroma_qp_offset=-2 threads=6 lookahead_threads=1 sliced_threads=0 nr=0 decimate=1 interlaced=0 bluray_compat=0 constrained_intra=0 bframes=3 b_pyramid=2 b_adapt=1 b_bias=0 direct=1 weightb=1 open_gop=0 weightp=2 keyint=250 keyint_min=23 scenecut=40 intra_refresh=0 rc_lookahead=40 rc=crf mbtree=1 crf=23.0 qcomp=0.60 qpmin=0 qpmax=69 qpstep=4 ip_ratio=1.40 aq=1:1.00
Output #0, mp4, to '/home/lucien/Documents/test/Sortie/test1.mp4':
  Metadata:
    major_brand     : isom
    minor_version   : 512
    compatible_brands: isomiso2avc1mp41
    encoder         : Lavf58.29.100
    Stream #0:0(und): Video: h264 (libx264) (avc1 / 0x31637661), yuv420p, 640x360 [SAR 1:1 DAR 16:9], q=-1--1, 23.98 fps, 24k tbn, 23.98 tbc (default)
    Metadata:
      handler_name    : ISO Media file produced by Google Inc.
      encoder         : Lavc58.54.100 libx264
    Side data:
      cpb: bitrate max/min/avg: 0/0/0 buffer size: 0 vbv_delay: -1
    Stream #0:1(eng): Audio: aac (LC) (mp4a / 0x6134706D), 44100 Hz, stereo, fltp, 128 kb/s (default)
    Metadata:
      handler_name    : ISO Media file produced by Google Inc.
      encoder         : Lavc58.54.100 aac
frame=  231 fps=0.0 q=28.0 size=     256kB time=00:00:09.79 bitrate= 214.1kbits/s speed=19.6x    frame=  417 fps=417 q=28.0 size=     512kB time=00:00:17.55 bitrate= 239.0kbits/s speed=17.5x    frame=  608 fps=405 q=28.0 size=    1024kB time=00:00:25.49 bitrate= 329.0kbits/s speed=  17x    frame=  877 fps=437 q=28.0 size=    1536kB time=00:00:36.73 bitrate= 342.6kbits/s speed=18.3x    frame= 1135 fps=453 q=28.0 size=    1792kB time=00:00:47.46 bitrate= 309.3kbits/s speed=18.9x    frame= 1320 fps=439 q=28.0 size=    2048kB time=00:00:55.21 bitrate= 303.8kbits/s speed=18.4x    frame= 1531 fps=436 q=28.0 size=    2560kB time=00:01:03.99 bitrate= 327.7kbits/s speed=18.2x    frame= 1794 fps=447 q=28.0 size=    2816kB time=00:01:14.90 bitrate= 308.0kbits/s speed=18.7x    frame= 2050 fps=454 q=28.0 size=    3072kB time=00:01:25.63 bitrate= 293.9kbits/s speed=  19x    frame= 2275 fps=454 q=28.0 size=    3584kB time=00:01:35.01 bitrate= 309.0kbits/s speed=  19x    frame= 2529 fps=459 q=28.0 size=    3840kB time=00:01:45.60 bitrate= 297.9kbits/s speed=19.2x    frame= 2701 fps=449 q=28.0 size=    4096kB time=00:01:52.80 bitrate= 297.5kbits/s speed=18.7x    frame= 2897 fps=444 q=28.0 size=    4608kB time=00:02:00.97 bitrate= 312.0kbits/s speed=18.6x    frame= 3076 fps=438 q=28.0 size=    4864kB time=00:02:08.45 bitrate= 310.2kbits/s speed=18.3x    frame= 3249 fps=432 q=28.0 size=    5376kB time=00:02:15.65 bitrate= 324.7kbits/s speed=  18x    frame= 3526 fps=440 q=28.0 size=    5632kB time=00:02:27.21 bitrate= 313.4kbits/s speed=18.4x    frame= 3862 fps=453 q=28.0 size=    6144kB time=00:02:41.23 bitrate= 312.2kbits/s speed=18.9x    frame= 4068 fps=451 q=28.0 size=    6400kB time=00:02:49.83 bitrate= 308.7kbits/s speed=18.8x    frame= 4267 fps=448 q=28.0 size=    6912kB time=00:02:58.09 bitrate= 317.9kbits/s speed=18.7x    frame= 4453 fps=444 q=28.0 size=    7168kB time=00:03:05.85 bitrate= 316.0kbits/s speed=18.5x    frame= 4653 fps=442 q=28.0 size=    7424kB time=00:03:14.21 bitrate= 313.2kbits/s speed=18.4x    frame= 4841 fps=439 q=28.0 size=    7936kB time=00:03:22.06 bitrate= 321.7kbits/s speed=18.3x    frame= 5023 fps=436 q=28.0 size=    8448kB time=00:03:29.58 bitrate= 330.2kbits/s speed=18.2x    frame= 5199 fps=432 q=28.0 size=    8960kB time=00:03:36.96 bitrate= 338.3kbits/s speed=  18x    frame= 5380 fps=429 q=28.0 size=    9216kB time=00:03:44.53 bitrate= 336.2kbits/s speed=17.9x    frame= 5577 fps=428 q=28.0 size=    9728kB time=00:03:52.75 bitrate= 342.4kbits/s speed=17.8x    frame= 5769 fps=426 q=28.0 size=   10240kB time=00:04:00.69 bitrate= 348.5kbits/s speed=17.8x    frame= 5928 fps=422 q=28.0 size=   10752kB time=00:04:07.33 bitrate= 356.1kbits/s speed=17.6x    frame= 6128 fps=421 q=28.0 size=   11264kB time=00:04:15.74 bitrate= 360.8kbits/s speed=17.6x    frame= 6328 fps=421 q=28.0 size=   11776kB time=00:04:24.01 bitrate= 365.4kbits/s speed=17.5x    frame= 6557 fps=422 q=28.0 size=   12032kB time=00:04:33.62 bitrate= 360.2kbits/s speed=17.6x    frame= 6716 fps=424 q=-1.0 Lsize=   12645kB time=00:04:40.21 bitrate= 369.7kbits/s speed=17.7x    
video:8044kB audio:4397kB subtitle:0kB other streams:0kB global headers:0kB muxing overhead: 1.641526%
[libx264 @ 0x55640c969440] frame I:117   Avg QP:14.00  size:  6148
[libx264 @ 0x55640c969440] frame P:2528  Avg QP:19.39  size:  1871
[libx264 @ 0x55640c969440] frame B:4071  Avg QP:20.98  size:   685
[libx264 @ 0x55640c969440] consecutive B-frames:  7.8% 22.8% 34.3% 35.1%
[libx264 @ 0x55640c969440] mb I  I16..4: 49.1% 38.1% 12.8%
[libx264 @ 0x55640c969440] mb P  I16..4:  6.7% 10.8%  1.2%  P16..4: 19.5%  4.1%  1.0%  0.0%  0.0%    skip:56.7%
[libx264 @ 0x55640c969440] mb B  I16..4:  0.7%  1.0%  0.2%  B16..8: 17.7%  2.0%  0.2%  direct: 0.9%  skip:77.2%  L0:43.0% L1:52.6% BI: 4.4%
[libx264 @ 0x55640c969440] 8x8 transform intra:53.8% inter:74.7%
[libx264 @ 0x55640c969440] coded y,uvDC,uvAC intra: 28.3% 41.6% 10.9% inter: 3.2% 5.4% 0.2%
[libx264 @ 0x55640c969440] i16 v,h,dc,p: 36% 31% 11% 22%
[libx264 @ 0x55640c969440] i8 v,h,dc,ddl,ddr,vr,hd,vl,hu: 38% 24% 22%  2%  2%  3%  2%  3%  3%
[libx264 @ 0x55640c969440] i4 v,h,dc,ddl,ddr,vr,hd,vl,hu: 35% 21% 19%  4%  4%  5%  4%  4%  3%
[libx264 @ 0x55640c969440] i8c dc,h,v,p: 44% 28% 20%  8%
[libx264 @ 0x55640c969440] Weighted P-Frames: Y:9.0% UV:6.0%
[libx264 @ 0x55640c969440] ref P L0: 66.7% 11.5% 14.0%  6.9%  0.8%
[libx264 @ 0x55640c969440] ref B L0: 81.3% 15.9%  2.8%
[libx264 @ 0x55640c969440] ref B L1: 97.9%  2.1%
[libx264 @ 0x55640c969440] kb/s:235.22
[aac @ 0x55640c969e80] Qavg: 623.957
ffmpeg version 4.2.4-1ubuntu0.1 Copyright (c) 2000-2020 the FFmpeg developers
  built with gcc 9 (Ubuntu 9.3.0-10ubuntu2)
  configuration: --prefix=/usr --extra-version=1ubuntu0.1 --toolchain=hardened --libdir=/usr/lib/x86_64-linux-gnu --incdir=/usr/include/x86_64-linux-gnu --arch=amd64 --enable-gpl --disable-stripping --enable-avresample --disable-filter=resample --enable-avisynth --enable-gnutls --enable-ladspa --enable-libaom --enable-libass --enable-libbluray --enable-libbs2b --enable-libcaca --enable-libcdio --enable-libcodec2 --enable-libflite --enable-libfontconfig --enable-libfreetype --enable-libfribidi --enable-libgme --enable-libgsm --enable-libjack --enable-libmp3lame --enable-libmysofa --enable-libopenjpeg --enable-libopenmpt --enable-libopus --enable-libpulse --enable-librsvg --enable-librubberband --enable-libshine --enable-libsnappy --enable-libsoxr --enable-libspeex --enable-libssh --enable-libtheora --enable-libtwolame --enable-libvidstab --enable-libvorbis --enable-libvpx --enable-libwavpack --enable-libwebp --enable-libx265 --enable-libxml2 --enable-libxvid --enable-libzmq --enable-libzvbi --enable-lv2 --enable-omx --enable-openal --enable-opencl --enable-opengl --enable-sdl2 --enable-libdc1394 --enable-libdrm --enable-libiec61883 --enable-nvenc --enable-chromaprint --enable-frei0r --enable-libx264 --enable-shared
  WARNING: library configuration mismatch
  avcodec     configuration: --prefix=/usr --extra-version=1ubuntu0.1 --toolchain=hardened --libdir=/usr/lib/x86_64-linux-gnu --incdir=/usr/include/x86_64-linux-gnu --arch=amd64 --enable-gpl --disable-stripping --enable-avresample --disable-filter=resample --enable-avisynth --enable-gnutls --enable-ladspa --enable-libaom --enable-libass --enable-libbluray --enable-libbs2b --enable-libcaca --enable-libcdio --enable-libcodec2 --enable-libflite --enable-libfontconfig --enable-libfreetype --enable-libfribidi --enable-libgme --enable-libgsm --enable-libjack --enable-libmp3lame --enable-libmysofa --enable-libopenjpeg --enable-libopenmpt --enable-libopus --enable-libpulse --enable-librsvg --enable-librubberband --enable-libshine --enable-libsnappy --enable-libsoxr --enable-libspeex --enable-libssh --enable-libtheora --enable-libtwolame --enable-libvidstab --enable-libvorbis --enable-libvpx --enable-libwavpack --enable-libwebp --enable-libx265 --enable-libxml2 --enable-libxvid --enable-libzmq --enable-libzvbi --enable-lv2 --enable-omx --enable-openal --enable-opencl --enable-opengl --enable-sdl2 --enable-libdc1394 --enable-libdrm --enable-libiec61883 --enable-nvenc --enable-chromaprint --enable-frei0r --enable-libx264 --enable-shared --enable-version3 --disable-doc --disable-programs --enable-libaribb24 --enable-liblensfun --enable-libopencore_amrnb --enable-libopencore_amrwb --enable-libtesseract --enable-libvo_amrwbenc
  libavutil      56. 31.100 / 56. 31.100
  libavcodec     58. 54.100 / 58. 54.100
  libavformat    58. 29.100 / 58. 29.100
  libavdevice    58.  8.100 / 58.  8.100
  libavfilter     7. 57.100 /  7. 57.100
  libavresample   4.  0.  0 /  4.  0.  0
  libswscale      5.  5.100 /  5.  5.100
  libswresample   3.  5.100 /  3.  5.100
  libpostproc    55.  5.100 / 55.  5.100
Input #0, mov,mp4,m4a,3gp,3g2,mj2, from '/home/lucien/Documents/test/test2.mp4':
  Metadata:
    major_brand     : isom
    minor_version   : 512
    compatible_brands: isomiso2avc1mp41
    encoder         : Lavf59.5.100
  Duration: 00:04:40.22, start: 0.000000, bitrate: 173 kb/s
    Stream #0:0(und): Video: h264 (Main) (avc1 / 0x31637661), yuv420p(tv, bt709), 640x360 [SAR 1:1 DAR 16:9], 120 kb/s, 23.98 fps, 23.98 tbr, 24k tbn, 47.95 tbc (default)
    Metadata:
      handler_name    : ISO Media file produced by Google Inc.
    Stream #0:1(eng): Audio: aac (HE-AAC) (mp4a / 0x6134706D), 44100 Hz, stereo, fltp, 48 kb/s (default)
    Metadata:
      handler_name    : ISO Media file produced by Google Inc.
Stream mapping:
  Stream #0:0 -> #0:0 (h264 (native) -> h264 (libx264))
  Stream #0:1 -> #0:1 (aac (native) -> aac (native))
Press [q] to stop, [?] for help
[libx264 @ 0x561941f30440] using SAR=1/1
[libx264 @ 0x561941f30440] using cpu capabilities: MMX2 SSE2Fast SSSE3 SSE4.2 AVX FMA3 BMI2 AVX2
[libx264 @ 0x561941f30440] profile High, level 3.0
[libx264 @ 0x561941f30440] 264 - core 155 r2917 0a84d98 - H.264/MPEG-4 AVC codec - Copyleft 2003-2018 - http://www.videolan.org/x264.html - options: cabac=1 ref=3 deblock=1:0:0 analyse=0x3:0x113 me=hex subme=7 psy=1 psy_rd=1.00:0.00 mixed_ref=1 me_range=16 chroma_me=1 trellis=1 8x8dct=1 cqm=0 deadzone=21,11 fast_pskip=1 chroma_qp_offset=-2 threads=6 lookahead_threads=1 sliced_threads=0 nr=0 decimate=1 interlaced=0 bluray_compat=0 constrained_intra=0 bframes=3 b_pyramid=2 b_adapt=1 b_bias=0 direct=1 weightb=1 open_gop=0 weightp=2 keyint=250 keyint_min=23 scenecut=40 intra_refresh=0 rc_lookahead=40 rc=crf mbtree=1 crf=23.0 qcomp=0.60 qpmin=0 qpmax=69 qpstep=4 ip_ratio=1.40 aq=1:1.00
Output #0, mp4, to '/home/lucien/Documents/test/Sortie/test2.mp4':
  Metadata:
    major_brand     : isom
    minor_version   : 512
    compatible_brands: isomiso2avc1mp41
    encoder         : Lavf58.29.100
    Stream #0:0(und): Video: h264 (libx264) (avc1 / 0x31637661), yuv420p, 640x360 [SAR 1:1 DAR 16:9], q=-1--1, 23.98 fps, 24k tbn, 23.98 tbc (default)
    Metadata:
      handler_name    : ISO Media file produced by Google Inc.
      encoder         : Lavc58.54.100 libx264
    Side data:
      cpb: bitrate max/min/avg: 0/0/0 buffer size: 0 vbv_delay: -1
    Stream #0:1(eng): Audio: aac (LC) (mp4a / 0x6134706D), 44100 Hz, stereo, fltp, 128 kb/s (default)
    Metadata:
      handler_name    : ISO Media file produced by Google Inc.
      encoder         : Lavc58.54.100 aac
frame=  225 fps=0.0 q=28.0 size=     256kB time=00:00:09.52 bitrate= 220.3kbits/s speed=  19x    frame=  402 fps=402 q=28.0 size=     512kB time=00:00:16.90 bitrate= 248.1kbits/s speed=16.9x    frame=  582 fps=388 q=28.0 size=    1024kB time=00:00:24.38 bitrate= 344.1kbits/s speed=16.2x    frame=  834 fps=416 q=28.0 size=    1280kB time=00:00:34.92 bitrate= 300.3kbits/s speed=17.4x    frame= 1099 fps=438 q=28.0 size=    1792kB time=00:00:45.97 bitrate= 319.3kbits/s speed=18.3x    frame= 1303 fps=433 q=28.0 size=    2048kB time=00:00:54.42 bitrate= 308.3kbits/s speed=18.1x    frame= 1507 fps=429 q=28.0 size=    2560kB time=00:01:02.97 bitrate= 333.0kbits/s speed=17.9x    frame= 1758 fps=438 q=28.0 size=    2816kB time=00:01:13.46 bitrate= 314.0kbits/s speed=18.3x    frame= 2010 fps=445 q=28.0 size=    3072kB time=00:01:23.91 bitrate= 299.9kbits/s speed=18.6x    frame= 2238 fps=446 q=28.0 size=    3328kB time=00:01:33.48 bitrate= 291.6kbits/s speed=18.6x    frame= 2494 fps=452 q=28.0 size=    3840kB time=00:01:44.11 bitrate= 302.1kbits/s speed=18.9x    frame= 2679 fps=445 q=28.0 size=    4096kB time=00:01:51.87 bitrate= 299.9kbits/s speed=18.6x    frame= 2865 fps=439 q=28.0 size=    4608kB time=00:01:59.58 bitrate= 315.7kbits/s speed=18.3x    frame= 3046 fps=433 q=28.0 size=    4864kB time=00:02:07.19 bitrate= 313.3kbits/s speed=18.1x    frame= 3218 fps=427 q=28.0 size=    5120kB time=00:02:14.30 bitrate= 312.3kbits/s speed=17.8x    frame= 3466 fps=432 q=28.0 size=    5632kB time=00:02:24.70 bitrate= 318.8kbits/s speed=  18x    frame= 3782 fps=443 q=28.0 size=    5888kB time=00:02:37.89 bitrate= 305.5kbits/s speed=18.5x    frame= 4023 fps=445 q=28.0 size=    6400kB time=00:02:47.92 bitrate= 312.2kbits/s speed=18.6x    frame= 4222 fps=443 q=28.0 size=    6656kB time=00:02:56.19 bitrate= 309.5kbits/s speed=18.5x    frame= 4407 fps=439 q=28.0 size=    7168kB time=00:03:03.94 bitrate= 319.2kbits/s speed=18.3x    frame= 4597 fps=436 q=28.0 size=    7424kB time=00:03:11.88 bitrate= 316.9kbits/s speed=18.2x    frame= 4782 fps=433 q=28.0 size=    7936kB time=00:03:19.59 bitrate= 325.7kbits/s speed=18.1x    frame= 4962 fps=430 q=28.0 size=    8192kB time=00:03:27.12 bitrate= 324.0kbits/s speed=17.9x    frame= 5126 fps=426 q=28.0 size=    8704kB time=00:03:33.90 bitrate= 333.3kbits/s speed=17.8x    frame= 5296 fps=422 q=28.0 size=    8960kB time=00:03:41.05 bitrate= 332.0kbits/s speed=17.6x    frame= 5490 fps=421 q=28.0 size=    9472kB time=00:03:49.13 bitrate= 338.6kbits/s speed=17.6x    frame= 5682 fps=420 q=28.0 size=    9984kB time=00:03:57.12 bitrate= 344.9kbits/s speed=17.5x    frame= 5840 fps=416 q=28.0 size=   10496kB time=00:04:03.71 bitrate= 352.8kbits/s speed=17.4x    frame= 6053 fps=416 q=28.0 size=   11008kB time=00:04:12.58 bitrate= 357.0kbits/s speed=17.4x    frame= 6213 fps=413 q=28.0 size=   11520kB time=00:04:19.27 bitrate= 364.0kbits/s speed=17.2x    frame= 6414 fps=413 q=28.0 size=   12032kB time=00:04:27.67 bitrate= 368.2kbits/s speed=17.2x    frame= 6709 fps=418 q=28.0 size=   12288kB time=00:04:39.93 bitrate= 359.6kbits/s speed=17.4x    frame= 6716 fps=418 q=-1.0 Lsize=   12645kB time=00:04:40.21 bitrate= 369.7kbits/s speed=17.4x    
video:8044kB audio:4397kB subtitle:0kB other streams:0kB global headers:0kB muxing overhead: 1.641526%
[libx264 @ 0x561941f30440] frame I:117   Avg QP:14.00  size:  6148
[libx264 @ 0x561941f30440] frame P:2528  Avg QP:19.39  size:  1871
[libx264 @ 0x561941f30440] frame B:4071  Avg QP:20.98  size:   685
[libx264 @ 0x561941f30440] consecutive B-frames:  7.8% 22.8% 34.3% 35.1%
[libx264 @ 0x561941f30440] mb I  I16..4: 49.1% 38.1% 12.8%
[libx264 @ 0x561941f30440] mb P  I16..4:  6.7% 10.8%  1.2%  P16..4: 19.5%  4.1%  1.0%  0.0%  0.0%    skip:56.7%
[libx264 @ 0x561941f30440] mb B  I16..4:  0.7%  1.0%  0.2%  B16..8: 17.7%  2.0%  0.2%  direct: 0.9%  skip:77.2%  L0:43.0% L1:52.6% BI: 4.4%
[libx264 @ 0x561941f30440] 8x8 transform intra:53.8% inter:74.7%
[libx264 @ 0x561941f30440] coded y,uvDC,uvAC intra: 28.3% 41.6% 10.9% inter: 3.2% 5.4% 0.2%
[libx264 @ 0x561941f30440] i16 v,h,dc,p: 36% 31% 11% 22%
[libx264 @ 0x561941f30440] i8 v,h,dc,ddl,ddr,vr,hd,vl,hu: 38% 24% 22%  2%  2%  3%  2%  3%  3%
[libx264 @ 0x561941f30440] i4 v,h,dc,ddl,ddr,vr,hd,vl,hu: 35% 21% 19%  4%  4%  5%  4%  4%  3%
[libx264 @ 0x561941f30440] i8c dc,h,v,p: 44% 28% 20%  8%
[libx264 @ 0x561941f30440] Weighted P-Frames: Y:9.0% UV:6.0%
[libx264 @ 0x561941f30440] ref P L0: 66.7% 11.5% 14.0%  6.9%  0.8%
[libx264 @ 0x561941f30440] ref B L0: 81.3% 15.9%  2.8%
[libx264 @ 0x561941f30440] ref B L1: 97.9%  2.1%
[libx264 @ 0x561941f30440] kb/s:235.22
[aac @ 0x561941f30e80] Qavg: 623.957
